# xmcd
#
# Track frame offsets: 
#        150
#        19606
#        34113
#        46222
#        63203
#        78189
#        89276
#        102316
#        119137
#        134844
#
# Disc length: 2224 seconds
#
# Revision: 0
# Processed by: cddbd v1.5.2PL0 Copyright (c) Steve Scherf et al.
# Submitted via: ExactAudioCopy v0.95b3
#
DISCID=8108ae0a
DTITLE=Flo and Eddie  - Flo and Eddie (1974)  FLAC
DYEAR=1900
DGENRE=
TTITLE0=If We Only Had The Time
TTITLE1=Days
TTITLE2=You're A Lady
TTITLE3=Carlos And The Bull
TTITLE4=Afterglow
TTITLE5=Best Part Of Breaking Up
TTITLE6=The Sanzini Brothers
TTITLE7=Another Pop Star's Life
TTITLE8=Just Another Town
TTITLE9=Marmendy Hill
EXTD=
EXTT0=
EXTT1=
EXTT2=
EXTT3=
EXTT4=
EXTT5=
EXTT6=
EXTT7=
EXTT8=
EXTT9=
PLAYORDER=
